<mxfile host="app.diagrams.net" modified="2024-01-22T08:34:29.574Z" agent="Mozilla/5.0 (Windows NT 10.0; Win64; x64) AppleWebKit/537.36 (KHTML, like Gecko) Chrome/120.0.0.0 Safari/537.36" etag="CrJfYxlJ-U48M563EZej" version="22.1.21" type="github">
  <diagram name="Page-1" id="2vKORqDGut29dqe3_Asw">
    <mxGraphModel dx="1434" dy="780" grid="1" gridSize="10" guides="1" tooltips="1" connect="1" arrows="1" fold="1" page="1" pageScale="1" pageWidth="850" pageHeight="1100" math="0" shadow="0">
      <root>
        <mxCell id="0" />
        <mxCell id="1" parent="0" />
        <mxCell id="HmPOCvO3ggLCmNM6c55v-2" value="" style="rounded=0;whiteSpace=wrap;html=1;rotation=-90;" vertex="1" parent="1">
          <mxGeometry x="235.19" y="360" width="505.23" height="255.62" as="geometry" />
        </mxCell>
        <mxCell id="HmPOCvO3ggLCmNM6c55v-3" value="user" style="shape=umlActor;verticalLabelPosition=bottom;verticalAlign=top;html=1;outlineConnect=0;" vertex="1" parent="1">
          <mxGeometry x="220" y="370" width="60" height="90" as="geometry" />
        </mxCell>
        <mxCell id="HmPOCvO3ggLCmNM6c55v-4" value="pustakawan" style="shape=umlActor;verticalLabelPosition=bottom;verticalAlign=top;html=1;outlineConnect=0;" vertex="1" parent="1">
          <mxGeometry x="680.42" y="366.25" width="60" height="93.75" as="geometry" />
        </mxCell>
        <mxCell id="HmPOCvO3ggLCmNM6c55v-5" value="mengisi buku kunjungan" style="ellipse;whiteSpace=wrap;html=1;" vertex="1" parent="1">
          <mxGeometry x="425" y="280" width="120" height="80" as="geometry" />
        </mxCell>
        <mxCell id="HmPOCvO3ggLCmNM6c55v-6" value="mencari buku" style="ellipse;whiteSpace=wrap;html=1;" vertex="1" parent="1">
          <mxGeometry x="425" y="396.25" width="120" height="80" as="geometry" />
        </mxCell>
        <mxCell id="HmPOCvO3ggLCmNM6c55v-7" value="membaca buku kunjungan" style="ellipse;whiteSpace=wrap;html=1;" vertex="1" parent="1">
          <mxGeometry x="425" y="520" width="120" height="80" as="geometry" />
        </mxCell>
        <mxCell id="HmPOCvO3ggLCmNM6c55v-8" value="rekap buku" style="ellipse;whiteSpace=wrap;html=1;" vertex="1" parent="1">
          <mxGeometry x="425" y="630" width="120" height="80" as="geometry" />
        </mxCell>
        <mxCell id="HmPOCvO3ggLCmNM6c55v-9" value="catatan pengunjung perpustakaan" style="text;html=1;strokeColor=none;fillColor=none;align=center;verticalAlign=middle;whiteSpace=wrap;rounded=0;" vertex="1" parent="1">
          <mxGeometry x="357.81" y="240" width="260" height="30" as="geometry" />
        </mxCell>
        <mxCell id="HmPOCvO3ggLCmNM6c55v-10" value="" style="endArrow=none;html=1;rounded=0;entryX=0.042;entryY=0.713;entryDx=0;entryDy=0;entryPerimeter=0;" edge="1" parent="1" target="HmPOCvO3ggLCmNM6c55v-5">
          <mxGeometry width="50" height="50" relative="1" as="geometry">
            <mxPoint x="290" y="420" as="sourcePoint" />
            <mxPoint x="390" y="240" as="targetPoint" />
            <Array as="points">
              <mxPoint x="430" y="340" />
            </Array>
          </mxGeometry>
        </mxCell>
        <mxCell id="HmPOCvO3ggLCmNM6c55v-11" value="" style="endArrow=none;html=1;rounded=0;" edge="1" parent="1" target="HmPOCvO3ggLCmNM6c55v-6">
          <mxGeometry width="50" height="50" relative="1" as="geometry">
            <mxPoint x="290" y="420" as="sourcePoint" />
            <mxPoint x="450" y="380" as="targetPoint" />
          </mxGeometry>
        </mxCell>
        <mxCell id="HmPOCvO3ggLCmNM6c55v-12" value="" style="endArrow=none;html=1;rounded=0;" edge="1" parent="1" source="HmPOCvO3ggLCmNM6c55v-7">
          <mxGeometry width="50" height="50" relative="1" as="geometry">
            <mxPoint x="400" y="430" as="sourcePoint" />
            <mxPoint x="670" y="440" as="targetPoint" />
          </mxGeometry>
        </mxCell>
        <mxCell id="HmPOCvO3ggLCmNM6c55v-14" value="" style="endArrow=none;html=1;rounded=0;exitX=1.025;exitY=0.388;exitDx=0;exitDy=0;exitPerimeter=0;" edge="1" parent="1" source="HmPOCvO3ggLCmNM6c55v-8">
          <mxGeometry width="50" height="50" relative="1" as="geometry">
            <mxPoint x="400" y="430" as="sourcePoint" />
            <mxPoint x="670" y="440" as="targetPoint" />
          </mxGeometry>
        </mxCell>
      </root>
    </mxGraphModel>
  </diagram>
</mxfile>
